<svg width="1868" height="679" viewBox="0 0 1868 679" fill="none" xmlns="http://www.w3.org/2000/svg">
<path fill-rule="evenodd" clip-rule="evenodd" d="M311.31 4.04264C311.896 1.55764 311.982 1.53967 325.857 0.999668C350.302 0.0476678 388.691 0.0216238 392.314 0.954624C395.51 1.77662 413.463 3.01073 422.564 3.03373C424.969 3.03973 426.314 3.50869 426.314 4.34269C426.314 5.05769 426.871 6.19965 427.552 6.88065C428.234 7.56265 428.796 8.88865 428.802 9.82865C428.809 10.7686 429.339 11.5387 429.981 11.5397C432.304 11.5457 432.724 13.2716 432.435 21.6366C432.16 29.5846 430.477 35.5426 428.507 35.5426C428.047 35.5426 426.917 36.2967 425.996 37.2177C424.468 38.7457 419.907 38.8777 374.398 38.7177C328.387 38.5564 324.782 38.5437 322.624 40.3042C322.441 40.4539 322.268 40.6164 322.08 40.7926C320.5 42.2776 318.444 43.0426 316.035 43.0426C313.358 43.0426 312.087 43.5987 311.269 45.1277C310.655 46.2737 308.645 47.8417 306.802 48.6127C304.959 49.3827 303.151 50.4966 302.785 51.0896C302.419 51.6816 301.038 52.5766 299.717 53.0796C297.383 53.9666 297.314 54.3057 297.314 64.8627C297.314 74.4327 297.077 75.9476 295.33 77.5276C293.947 78.7796 293.529 80.0507 293.949 81.7237C294.648 84.5087 292.003 88.0426 289.218 88.0426C288.236 88.0426 287.154 88.4926 286.814 89.0426C286.008 90.3466 270.62 90.3466 269.814 89.0426C269.474 88.4926 268.392 88.0426 267.41 88.0426C259.103 88.0426 258.364 44.7907 266.508 35.2577C268.051 33.4517 269.315 31.6517 269.317 31.2577C269.322 29.9397 284.368 15.0426 285.694 15.0426C286.415 15.0426 287.819 14.1426 288.814 13.0426C289.865 11.8806 291.894 11.0426 293.655 11.0426C295.374 11.0426 297.67 10.1177 298.96 8.90567C300.57 7.39267 302.62 6.73567 305.978 6.65567C310.171 6.55567 310.789 6.25264 311.31 4.04264Z" fill="#FF0000"/>
<path d="M1100.51 124.569C1095.81 117.124 1095.43 93.7406 1099.93 89.0426C1107.35 81.2956 1129.24 86.2235 1129.24 95.6405C1129.24 100.186 1129.67 101.285 1132.58 104.293C1139.06 110.994 1145.34 116.238 1146.87 116.238C1147.73 116.238 1149.57 117.138 1150.97 118.238C1152.37 119.338 1154.28 120.238 1155.22 120.238C1156.16 120.238 1157.75 121.138 1158.74 122.238C1159.74 123.343 1161.82 124.238 1163.39 124.238C1165.14 124.238 1166.71 125.002 1167.48 126.238C1168.44 127.781 1169.81 128.238 1173.46 128.238C1177.41 128.238 1178.47 128.654 1179.84 130.738C1181.14 132.726 1182.32 133.245 1185.61 133.27C1187.88 133.287 1190.62 133.962 1191.69 134.77C1192.75 135.577 1195.5 136.238 1197.8 136.238C1200.59 136.238 1203.18 137.06 1205.65 138.738C1208.18 140.453 1210.69 141.238 1213.67 141.238C1216.3 141.238 1218.49 141.827 1219.24 142.738C1220.16 143.838 1222.58 144.238 1228.34 144.238C1235.62 144.238 1236.32 144.423 1237.84 146.738C1239.32 148.995 1240.13 149.238 1246.2 149.238C1251.66 149.238 1253.28 149.615 1254.74 151.238C1256.34 153 1257.82 153.238 1267.24 153.238C1276.66 153.238 1278.15 153.476 1279.74 155.238C1281.21 156.858 1282.82 157.238 1288.24 157.238C1293.75 157.238 1295.27 157.606 1296.82 159.32C1298.55 161.238 1299.59 161.376 1310.06 161.07C1320.84 160.755 1321.51 160.854 1323.24 162.988C1324.93 165.069 1325.87 165.238 1335.84 165.238C1344.88 165.238 1347.34 165.59 1351.14 167.428C1356.26 169.906 1361.02 170.949 1373.24 172.268C1377.92 172.772 1383.91 173.647 1386.54 174.211C1389.18 174.776 1395.3 175.238 1400.14 175.238C1407.66 175.238 1409.2 175.527 1410.74 177.238C1412.38 179.05 1413.83 179.238 1426.09 179.238C1438.44 179.238 1439.81 179.42 1441.84 181.329C1443.82 183.186 1445.66 183.479 1458.41 183.96C1466.29 184.257 1473.34 184.976 1474.08 185.559C1475.76 186.901 1483.61 188.278 1493.2 188.915C1497.3 189.187 1501.56 190.047 1502.67 190.824C1504.19 191.886 1508.33 192.238 1519.31 192.238C1532.4 192.238 1534.11 192.437 1535.65 194.136C1537.14 195.779 1539.47 196.128 1553.06 196.743C1566.15 197.336 1569.08 197.754 1570.75 199.265C1572.12 200.508 1574.94 201.235 1579.75 201.582C1583.6 201.86 1589.45 202.534 1592.75 203.079C1596.05 203.623 1605.38 204.107 1613.49 204.154C1628.23 204.238 1628.23 204.238 1630.9 207.238C1633.58 210.238 1633.58 210.238 1647.45 210.238C1659.47 210.238 1661.69 210.493 1664.04 212.138C1666.15 213.62 1669.22 214.165 1678 214.615C1685.09 214.978 1690.35 215.756 1692.2 216.715C1694.37 217.839 1698.4 218.238 1707.54 218.238C1718.67 218.238 1720.12 218.443 1721.75 220.238C1723.3 221.952 1724.83 222.238 1732.44 222.238C1738.81 222.238 1741.99 222.68 1743.71 223.804C1745.33 224.868 1749.63 225.556 1757.15 225.952C1766.15 226.427 1768.52 226.879 1769.88 228.387C1771.33 229.99 1773.14 230.238 1783.42 230.238C1795.11 230.238 1795.3 230.276 1796.43 232.738C1797.48 235.042 1798.09 235.238 1804.25 235.238C1809.67 235.238 1811.28 235.618 1812.75 237.238C1814.22 238.868 1815.83 239.238 1821.42 239.238C1827.78 239.238 1828.37 239.425 1829.43 241.738C1830.34 243.746 1831.29 244.238 1834.25 244.238C1836.67 244.238 1838.56 244.927 1839.75 246.238C1841 247.622 1842.82 248.238 1845.68 248.238C1848.32 248.238 1850.38 248.867 1851.43 249.988C1852.32 250.95 1854.73 252.863 1856.77 254.238C1858.82 255.613 1862.01 258.313 1863.87 260.238C1871.78 268.463 1867.22 298.238 1858.04 298.238C1857.23 298.238 1856.05 299.363 1855.43 300.738C1854.44 302.904 1853.64 303.238 1849.44 303.238C1845.6 303.238 1844.12 303.742 1842.3 305.676C1840.23 307.88 1839.04 308.154 1829.88 308.536C1824.31 308.768 1817.72 309.535 1815.25 310.24C1812.77 310.946 1803.32 311.805 1794.25 312.149C1780.12 312.685 1777.05 313.096 1772.91 315.007C1764.83 318.74 1485.29 318.482 1482.84 314.738C1481.2 312.238 1481.2 312.238 1413.74 312.238C1346.29 312.238 1346.29 312.238 1344.65 309.738C1343.02 307.238 1343.02 307.238 1297.88 307.216C1254.62 307.194 1252.64 307.112 1250.24 305.238C1247.87 303.383 1245.94 303.281 1212.65 303.26C1179.71 303.239 1177.45 303.124 1175.87 301.376C1174.3 299.641 1171.65 299.482 1136.95 299.037C1107.6 298.66 1099.19 298.263 1097.23 297.161C1095.23 296.038 1085.95 295.694 1049.96 295.406C1005.17 295.048 1005.17 295.048 1002.31 292.643C999.456 290.238 999.456 290.238 962.973 290.238C931.764 290.238 926.31 290.021 925.245 288.738C923.048 286.09 870.935 286.548 868.245 289.238C866.894 290.589 864.912 291.238 862.137 291.238C859.877 291.238 853.319 292.83 847.563 294.776C841.807 296.723 835.485 298.41 833.514 298.526C831.439 298.649 829.016 299.631 827.762 300.858C825.975 302.607 824.733 302.896 820.67 302.507C815.913 302.052 815.705 302.142 814.582 305.137C813.425 308.222 813.381 308.238 805.987 308.238C799.825 308.238 798.246 308.58 796.745 310.238C795.186 311.961 793.665 312.238 785.781 312.238C779.281 312.238 776.065 312.664 774.686 313.706C771.209 316.336 704.159 315.906 701.745 313.238C700.75 312.138 698.681 311.238 697.149 311.238C695.617 311.238 694.085 310.788 693.745 310.238C692.568 308.333 688.932 309.253 684.848 312.488C682.591 314.276 679.066 316.592 677.013 317.636C674.961 318.679 672.588 320.592 671.74 321.886C670.892 323.179 669.589 324.238 668.844 324.238C668.099 324.238 666.902 324.946 666.184 325.811C665.466 326.676 663.274 328.265 661.312 329.341C659.35 330.417 655.762 332.41 653.338 333.768C650.914 335.127 647.928 336.238 646.703 336.238C645.43 336.238 643.773 337.31 642.837 338.738C641.898 340.171 640.245 341.238 638.962 341.238C637.732 341.238 636.164 342.138 635.477 343.238C634.545 344.731 633.145 345.238 629.959 345.238C627.611 345.238 624.691 345.938 623.469 346.794C621.646 348.071 618.966 348.264 608.497 347.874C590.729 347.212 586.29 346.453 582.746 343.473C578.524 339.922 568.245 327.514 568.245 325.969C568.245 325.262 566.895 323.499 565.245 322.051C562.724 319.839 562.245 318.68 562.245 314.797C562.245 309.639 560.629 308.207 556.931 310.086C550.776 313.213 546.312 316.247 542.245 320.067C539.77 322.392 536.62 324.568 535.245 324.903C533.87 325.239 530.869 327.026 528.577 328.875C526.284 330.725 523.502 332.238 522.394 332.238C521.254 332.238 520.103 333.111 519.742 334.249C519.134 336.162 512.256 340.238 509.634 340.238C508.954 340.238 507.061 341.363 505.427 342.738C503.793 344.113 501.911 345.238 501.245 345.238C500.579 345.238 498.697 346.363 497.063 347.738C495.429 349.113 493.521 350.238 492.823 350.238C492.126 350.238 490.74 351.138 489.745 352.238C488.75 353.338 486.95 354.238 485.745 354.238C484.54 354.238 482.74 355.138 481.745 356.238C480.573 357.533 478.665 358.238 476.331 358.238C473.809 358.238 472.351 358.839 471.477 360.238C470.705 361.474 469.145 362.238 467.392 362.238C465.825 362.238 463.745 363.133 462.745 364.238C461.75 365.338 459.767 366.24 458.34 366.242C456.913 366.244 454.24 367.163 452.401 368.284C448.642 370.576 417.33 370.233 414.356 367.867C413.592 367.26 411.908 366.901 410.614 367.071C408.036 367.409 402.248 362.013 402.241 359.265C402.239 358.425 401.262 356.163 400.07 354.238C398.15 351.138 397.911 349.379 397.978 338.834C398.024 331.535 397.709 327.474 397.164 328.334C396.589 329.243 396.276 327.623 396.276 323.738C396.276 319.499 396.56 318.178 397.245 319.238C397.983 320.379 398.218 319.975 398.23 317.547C398.238 315.792 398.623 314.122 399.086 313.836C399.549 313.55 399.959 311.233 399.997 308.686C400.045 305.546 400.702 303.362 402.041 301.897C403.127 300.71 404.343 298.613 404.744 297.238C405.952 293.095 409.218 288.381 411.35 287.705C412.961 287.194 413.295 286.346 413.05 283.403C412.704 279.25 406.904 277.518 403.397 280.52C401.135 282.456 398.245 283.389 398.245 282.184C398.245 280.597 393.502 284.148 392.986 286.122C392.576 287.688 384.153 294.238 382.548 294.238C381.526 294.238 371.661 301.032 370.296 302.676C369.583 303.535 368.449 304.238 367.776 304.238C365.921 304.238 360.37 307.202 359.507 308.654C358.739 309.946 356.165 311.495 348.662 315.179C346.416 316.282 343.041 318.766 341.162 320.7C339.283 322.634 337.252 324.221 336.65 324.227C336.048 324.233 334.74 325.138 333.745 326.238C332.75 327.338 331.175 328.238 330.245 328.238C329.315 328.238 327.74 329.138 326.745 330.238C325.75 331.338 324.486 332.238 323.937 332.238C323.388 332.238 320.559 334.488 317.651 337.238C314.744 339.988 311.857 342.238 311.237 342.238C310.617 342.238 307.624 344.263 304.586 346.738C301.548 349.213 298.67 351.238 298.192 351.238C297.714 351.238 293.687 353.713 289.245 356.738C284.803 359.763 280.666 362.238 280.052 362.238C279.439 362.238 277.419 364.012 275.563 366.179C273.708 368.347 271.266 370.414 270.138 370.772C269.01 371.13 266.017 373.406 263.487 375.83C260.957 378.255 258.341 380.238 257.673 380.238C257.005 380.238 256.225 380.848 255.939 381.594C255.653 382.339 253.017 384.325 250.082 386.008C244.617 389.139 241.761 391.648 238.151 396.488C237.023 398 235.318 399.238 234.362 399.238C233.407 399.238 231.302 400.51 229.685 402.065C226.742 404.895 219.892 410.999 208.87 420.613C205.638 423.432 200.354 428.101 197.128 430.988C193.902 433.876 190.822 436.238 190.283 436.238C189.118 436.238 184.245 446.208 184.245 448.591C184.245 449.504 183.12 451.229 181.745 452.425C180.063 453.888 179.245 455.634 179.245 457.763C179.245 459.658 178.442 461.654 177.245 462.738C176.145 463.733 175.245 465.533 175.245 466.738C175.245 467.943 174.345 469.743 173.245 470.738C172.145 471.733 171.245 473.577 171.245 474.834C171.245 476.091 170.837 477.372 170.337 477.681C169.838 477.989 168.642 480.828 167.679 483.99C166.716 487.151 165.099 490.667 164.087 491.802C163.074 492.938 162.245 495.013 162.245 496.413C162.245 497.813 161.188 500.517 159.895 502.421C156.056 508.078 153.913 514.757 154.583 518.973C155.238 523.095 154.663 524.545 151.98 525.535C151.009 525.894 149.793 527.296 149.278 528.652C148.762 530.007 147.419 531.61 146.293 532.212C144.779 533.022 144.245 534.302 144.245 537.118C144.245 539.658 143.578 541.531 142.245 542.738C141.145 543.733 140.245 545.551 140.245 546.778C140.245 548.053 139.175 549.709 137.745 550.646C135.95 551.822 135.236 553.194 135.213 555.511C135.196 557.286 134.521 559.612 133.713 560.679C132.906 561.747 132.245 563.581 132.245 564.755C132.245 565.929 131.12 567.946 129.745 569.238C128.274 570.62 127.245 572.699 127.245 574.29C127.245 575.777 126.57 577.553 125.745 578.238C124.92 578.923 124.245 580.539 124.245 581.831C124.245 583.279 123.097 585.027 121.245 586.396C119.524 587.668 118.245 589.534 118.245 590.771C118.245 591.957 117.345 593.743 116.245 594.738C115.012 595.853 114.245 597.818 114.245 599.858C114.245 602.144 113.627 603.499 112.245 604.238C110.93 604.942 110.245 606.332 110.245 608.295C110.245 610.51 109.599 611.575 107.745 612.42C106.08 613.178 105.245 614.368 105.245 615.98C105.245 617.312 103.732 620.277 101.882 622.57C100.033 624.862 98.2261 627.97 97.8671 629.475C97.507 630.981 96.0949 632.945 94.7289 633.84C93.3629 634.736 92.245 636.29 92.245 637.294C92.245 638.298 91.795 639.398 91.245 639.738C90.695 640.078 90.245 641.012 90.245 641.814C90.245 643.217 83.3789 650.942 72.6219 661.642C63.8699 670.347 61.629 672.238 60.067 672.238C59.235 672.238 57.783 673.091 56.84 674.133C53.548 677.77 28.566 679.796 22.745 676.899C21.095 676.077 18.4728 675.125 16.9188 674.783C13.5588 674.044 6.43587 667.269 3.40587 661.931C0.155867 656.205 0.0828259 618.985 3.31383 614.878C4.56483 613.287 5.14604 611.502 4.78404 610.361C4.42404 609.226 4.73197 608.265 5.55797 607.948C7.60097 607.164 10.245 600.93 10.245 596.896C10.245 594.949 10.695 593.078 11.245 592.738C11.795 592.398 12.245 590.8 12.245 589.187C12.245 587.221 13.1869 585.414 15.1009 583.709C16.6709 582.309 19.1599 578.706 20.6319 575.701C22.1029 572.696 23.7119 570.238 24.2079 570.238C24.7039 570.238 25.3739 569.406 25.6969 568.39C26.0189 567.373 27.429 566.02 28.829 565.382C30.78 564.493 31.2218 563.74 30.7198 562.158C30.0548 560.062 32.789 555.838 34.233 556.731C35.209 557.334 39.5758 552.588 39.8668 550.608C39.9948 549.735 41.0109 548.052 42.1249 546.866C43.2379 545.681 44.8139 543.122 45.6249 541.179C46.4369 539.237 48.5 536.575 50.211 535.264C51.922 533.953 53.1489 532.398 52.9369 531.809C52.1559 529.631 57.8649 520.697 62.0729 517.513C64.4529 515.712 66.1539 514.238 65.8529 514.238C64.6359 514.238 70.1829 507.309 76.9879 500.33C80.9599 496.256 84.4749 492.088 84.7989 491.069C85.1219 490.05 86.724 488.524 88.359 487.679C89.994 486.834 91.8429 484.926 92.4669 483.44C93.6719 480.574 96.591 477.095 102.141 471.91C104.009 470.166 106.934 467.166 108.641 465.244C110.348 463.322 113.279 460.397 115.153 458.744C117.028 457.091 119.503 454.674 120.653 453.373C121.804 452.072 125.914 447.797 129.786 443.873C133.659 439.949 139.261 434.048 142.234 430.759C145.207 427.471 149.239 423.711 151.193 422.403C157.484 418.193 159.169 415.388 159.209 409.056C159.242 403.903 159.524 403.175 162.245 401.238C163.895 400.063 165.245 398.517 165.245 397.803C165.245 395.572 169.495 385.838 171.414 383.674C172.421 382.538 173.259 380.738 173.277 379.674C173.294 378.609 173.969 376.864 174.777 375.797C175.584 374.729 176.245 372.886 176.245 371.702C176.245 370.517 177.169 368.712 178.299 367.69C179.962 366.184 180.23 365.108 179.709 362.023C179.136 358.631 179.402 357.919 182.155 355.504C183.855 354.013 185.245 352.018 185.245 351.072C185.245 350.126 186.201 348.681 187.37 347.863C189.002 346.72 189.342 345.761 188.835 343.74C188.304 341.624 188.771 340.549 191.209 338.271C192.879 336.712 194.245 334.561 194.245 333.492C194.245 332.423 195.145 330.733 196.245 329.738C197.56 328.548 198.245 326.658 198.245 324.218C198.245 322.022 199.061 319.47 200.245 317.965C201.345 316.567 202.245 314.784 202.245 314.005C202.245 313.225 203.37 311.53 204.745 310.238C206.437 308.648 207.245 306.818 207.245 304.572C207.245 302.338 207.898 300.847 209.245 300.006C210.466 299.243 211.245 297.674 211.245 295.976C211.245 293.98 211.951 292.874 213.745 292.056C215.778 291.13 216.245 290.202 216.245 287.086C216.245 284.338 216.81 282.902 218.245 282.006C219.361 281.309 220.259 279.648 220.277 278.247C220.294 276.867 220.969 274.864 221.777 273.797C222.584 272.729 223.245 270.345 223.245 268.499C223.245 266.203 224.035 264.41 225.745 262.826C227.12 261.551 228.245 259.393 228.245 258.028C228.245 256.664 229.145 254.733 230.245 253.738C231.449 252.649 232.245 250.658 232.245 248.738C232.245 246.818 233.041 244.827 234.245 243.738C235.734 242.39 236.245 240.658 236.245 236.954C236.245 231.127 226.027 230.299 221.912 235.791C220.766 237.321 219.075 238.238 217.402 238.238C215.809 238.238 214.221 239.047 213.477 240.238C212.644 241.572 211.145 242.238 208.977 242.238C206.809 242.238 205.31 242.904 204.477 244.238C203.79 245.338 202.284 246.238 201.131 246.238C199.977 246.238 197.743 247.324 196.166 248.651C194.502 250.052 192.516 250.86 191.435 250.577C190.197 250.254 189.006 250.954 187.885 252.664C186.958 254.08 185.397 255.238 184.416 255.238C183.436 255.238 181.109 256.363 179.245 257.738C177.381 259.113 175.099 260.238 174.173 260.238C173.247 260.238 171.93 260.913 171.245 261.738C170.56 262.563 169.461 263.238 168.803 263.238C168.144 263.238 166.627 264.363 165.432 265.738C164.236 267.113 162.618 268.238 161.835 268.238C161.052 268.238 159.51 269.476 158.409 270.988C157.041 272.866 155.462 273.765 153.431 273.824C150.01 273.922 143.101 276.925 141.995 278.793C135.196 290.28 104.07 285.618 104.03 273.107C103.992 261.067 104.173 259.452 105.745 257.881C106.57 257.056 107.245 255.481 107.245 254.381C107.245 251.322 109.991 249.032 112.225 250.227C113.529 250.925 114.893 250.781 116.905 249.731C118.467 248.917 120.227 248.248 120.816 248.244C122.168 248.236 130.067 244.332 128.84 244.278C128.342 244.256 128.782 243.302 129.817 242.158C131.178 240.655 132.457 240.23 134.433 240.626C135.937 240.926 137.436 240.737 137.765 240.205C138.094 239.673 137.831 239.238 137.182 239.238C136.301 239.238 136.317 238.856 137.245 237.738C137.93 236.913 139.382 236.238 140.473 236.238C142.376 236.238 146.469 233.456 150.78 229.232C151.9 228.135 153.635 227.238 154.636 227.238C155.637 227.238 157.771 226.132 159.378 224.78C161.033 223.387 162.965 222.577 163.836 222.911C164.758 223.265 165.97 222.648 166.865 221.369C167.942 219.833 169.414 219.238 172.141 219.238C175.206 219.238 176.14 218.763 177.063 216.738C177.69 215.363 179.042 214.238 180.069 214.238C181.095 214.238 182.75 213.338 183.745 212.238C184.833 211.036 186.825 210.238 188.739 210.238C191.166 210.238 192.195 209.643 193.063 207.738C193.881 205.944 194.987 205.238 196.983 205.238C198.681 205.238 200.25 204.459 201.013 203.238C201.7 202.138 203.297 201.238 204.562 201.238C205.828 201.238 207.736 200.577 208.804 199.77C209.871 198.962 211.772 198.287 213.026 198.27C214.281 198.252 215.555 197.593 215.857 196.806C216.16 196.018 218.958 194.595 222.076 193.644C225.194 192.694 228.455 191.313 229.324 190.577C230.192 189.84 232.035 189.238 233.419 189.238C234.803 189.238 236.75 188.338 237.745 187.238C238.74 186.138 240.279 185.238 241.164 185.238C242.049 185.238 245.236 184.338 248.245 183.238C272.603 174.335 288.815 180.744 288.596 199.192C288.372 217.978 288.023 220.206 284.914 222.685C283.446 223.855 282.245 225.748 282.245 226.891C282.245 228.033 281.345 230.112 280.245 231.511C279.083 232.988 278.245 235.568 278.245 237.667C278.245 240.581 277.745 241.508 275.666 242.456C273.648 243.375 273.191 244.173 273.563 246.12C273.994 248.375 272.341 253.139 268.61 260.392C267.859 261.852 267.245 263.994 267.245 265.151C267.245 266.308 265.895 269.119 264.245 271.397C262.141 274.301 261.245 276.695 261.245 279.409C261.245 282.569 260.785 283.49 258.745 284.42C257.045 285.195 256.245 286.362 256.245 288.07C256.245 289.451 255.508 291.395 254.607 292.39C253.706 293.386 252.836 295.88 252.673 297.933C252.463 300.577 251.628 302.212 249.811 303.536C248.115 304.771 247.245 306.352 247.245 308.199C247.245 309.736 246.57 311.553 245.745 312.238C244.841 312.988 244.245 315.176 244.245 317.745C244.245 321.189 243.764 322.323 241.745 323.646C240.37 324.547 239.245 325.879 239.245 326.606C239.245 327.333 238.309 328.775 237.165 329.81C235.675 331.159 235.238 332.455 235.624 334.383C235.983 336.179 235.511 337.901 234.204 339.564C228.581 346.711 233.081 351.723 239.961 345.975C242.109 344.181 245.704 341.884 247.949 340.871C250.195 339.859 252.417 338.22 252.889 337.23C254.071 334.744 264.753 326.238 266.692 326.238C268.371 326.238 277.963 318.807 282.396 314.07C283.854 312.513 286.05 311.238 287.275 311.238C288.5 311.238 291.132 309.868 293.123 308.193C301.535 301.119 309.218 295.238 310.046 295.238C310.535 295.238 311.75 294.338 312.745 293.238C313.74 292.138 315.307 291.238 316.226 291.238C317.145 291.238 318.89 290.18 320.105 288.887C321.32 287.593 324.146 285.931 326.384 285.192C328.622 284.453 331.123 282.827 331.942 281.578C332.76 280.329 336.379 277.658 339.983 275.642C343.587 273.627 347.887 270.686 349.539 269.108C351.19 267.529 353.08 266.238 353.738 266.238C354.397 266.238 355.75 265.338 356.745 264.238C357.74 263.138 359.599 262.238 360.874 262.238C362.44 262.238 363.698 261.263 364.745 259.238C365.919 256.969 366.991 256.238 369.148 256.238C370.717 256.238 372.56 255.563 373.245 254.738C373.93 253.913 374.933 253.238 375.474 253.238C376.015 253.238 377.334 252.124 378.405 250.762C379.476 249.4 382.105 247.814 384.248 247.237C386.66 246.588 388.952 245.054 390.263 243.213C391.769 241.098 393.21 240.238 395.246 240.238C397.199 240.238 398.305 239.623 398.724 238.305C399.363 236.291 406.618 232.238 409.582 232.238C410.52 232.238 411.813 231.085 412.456 229.675C413.16 228.13 414.719 226.893 416.383 226.56C417.901 226.257 419.911 225.16 420.849 224.123C421.787 223.086 423.105 222.238 423.778 222.238C424.45 222.238 425.56 221.563 426.245 220.738C426.93 219.913 428.552 219.238 429.85 219.238C431.284 219.238 434.051 217.473 436.906 214.738C439.519 212.235 442.564 210.238 443.769 210.238C444.96 210.238 446.75 209.338 447.745 208.238C448.74 207.138 450.805 206.238 452.334 206.238C454.621 206.238 455.168 205.752 455.429 203.488C455.619 201.831 456.276 200.849 457.081 201.017C457.815 201.17 459.946 200.35 461.816 199.194C463.831 197.949 466.001 197.343 467.146 197.706C468.212 198.045 469.412 197.777 469.825 197.109C470.34 196.276 470.053 196.098 468.906 196.538C467.36 197.131 467.357 196.997 468.857 194.708C469.76 193.329 471.44 192.238 472.66 192.238C473.862 192.238 475.272 191.813 475.795 191.293C477.782 189.317 488.306 184.237 490.476 184.206C492.994 184.171 496.245 182.079 496.245 180.494C496.245 178.599 500.683 178.003 513.12 178.228C521.534 178.381 525.72 178.088 526.2 177.312C526.587 176.684 527.588 176.432 528.423 176.753C537.315 180.165 536.631 200.879 527.318 210.251C525.353 212.228 522.424 215.73 520.81 218.033C519.195 220.336 517.123 222.459 516.204 222.751C515.285 223.043 513.429 224.834 512.078 226.732C510.728 228.63 504.475 235.54 498.184 242.087C475.094 266.115 462.458 280.431 459.654 285.738C458.782 287.388 456.083 290.311 453.657 292.233C451.23 294.156 449.245 296.568 449.245 297.595C449.245 298.621 447.445 301.61 445.245 304.238C443.045 306.866 441.245 309.95 441.245 311.092C441.245 312.233 440.344 313.65 439.243 314.239C434.631 316.707 431.993 332.238 436.186 332.238C437.254 332.238 438.405 331.788 438.745 331.238C439.085 330.688 441.517 330.238 444.149 330.238C447.665 330.238 449.415 329.707 450.745 328.238C451.928 326.931 453.825 326.238 456.222 326.238C459.942 326.238 469.89 321.575 472.258 318.722C472.936 317.906 474.265 317.238 475.212 317.238C476.16 317.238 477.75 316.338 478.745 315.238C479.74 314.138 481.277 313.238 482.159 313.238C483.042 313.238 484.326 312.338 485.013 311.238C485.784 310.003 487.345 309.238 489.093 309.238C491.142 309.238 492.238 308.548 493.063 306.738C493.69 305.363 494.826 304.238 495.589 304.238C496.351 304.238 498.119 303.338 499.518 302.238C500.916 301.138 502.6 300.238 503.258 300.238C504.356 300.238 508.145 297.589 512.472 293.798C513.422 292.965 515.672 291.639 517.472 290.85C519.272 290.062 523.398 287.239 526.641 284.577C529.884 281.916 533.573 279.063 534.839 278.238C541.088 274.166 546.039 270.454 548.842 267.738C550.546 266.088 554.371 262.984 557.342 260.84C564.531 255.653 567.245 251.401 567.245 245.324C567.245 241.818 567.777 240.067 569.245 238.738C570.345 237.743 571.245 235.718 571.245 234.238C571.245 232.758 572.145 230.733 573.245 229.738C574.345 228.743 575.245 227.124 575.245 226.142C575.245 225.16 575.731 224.055 576.326 223.688C576.921 223.32 578.199 221.718 579.167 220.127C581.843 215.725 591.412 205.238 592.752 205.238C593.402 205.238 594.783 204.301 595.82 203.155C614.021 183.043 648.772 210.122 636.113 234.554C633.163 240.248 628.786 246.201 626.078 248.203C624.435 249.418 621.888 252.287 620.418 254.578C617.719 258.784 611.707 264.681 602.995 271.669C598.183 275.528 595.861 295.836 599.22 304.673C600.262 307.413 623.151 308.817 624.745 306.238C625.085 305.688 626.671 305.238 628.269 305.238C630.191 305.238 631.552 304.532 632.29 303.153C632.904 302.007 634.929 300.432 636.791 299.654C638.653 298.876 641.752 296.664 643.677 294.739C645.603 292.813 648.032 291.238 649.074 291.238C650.13 291.238 653.882 288.134 657.537 284.238C661.149 280.388 664.663 277.238 665.346 277.238C669.202 277.238 670.244 274.194 670.28 262.833C670.305 255.104 670.749 250.98 671.745 249.238C672.531 247.863 673.19 245.682 673.21 244.392C673.229 243.102 674.083 240.852 675.106 239.392C676.13 237.932 677.516 235.047 678.186 232.98C678.857 230.914 680.264 228.763 681.313 228.201C682.363 227.64 683.503 226.058 683.847 224.686C684.192 223.314 685.28 221.626 686.266 220.936C687.253 220.245 690.525 216.529 693.538 212.678C696.551 208.827 701.543 203.518 704.631 200.88C707.719 198.242 710.245 195.519 710.245 194.83C710.245 194.14 712.862 192.408 716.061 190.981C719.26 189.553 722.465 187.677 723.184 186.812C726.022 183.392 758.677 184.62 763.351 188.322C768.11 192.091 769.481 216.125 765.245 221.511C764.145 222.909 763.245 225.15 763.245 226.491C763.245 227.831 762.345 229.743 761.245 230.738C760.145 231.733 759.245 232.968 759.245 233.482C759.245 233.995 756.32 237.62 752.745 241.537C749.17 245.454 746.245 249.078 746.245 249.591C746.245 250.714 738.824 259.589 731.281 267.487C721.424 277.807 720.731 277.38 746.514 276.877C775.339 276.314 790.814 273.885 795.695 269.158C796.218 268.652 799.044 268.238 801.977 268.238C804.91 268.238 808.925 267.563 810.899 266.738C812.874 265.913 815.729 265.238 817.245 265.238C818.76 265.238 820.56 264.563 821.245 263.738C821.93 262.913 823.222 262.233 824.117 262.226C825.013 262.219 827.703 261.094 830.097 259.726C833.207 257.948 835.94 257.238 839.673 257.238C843.901 257.238 845.328 256.778 847.163 254.825C850.686 251.075 928.192 247.999 934.473 251.36C935.983 252.168 948.433 252.685 974.703 253.028C1004.91 253.423 1013.18 253.812 1014.88 254.92C1016.56 256.019 1024.6 256.429 1052.88 256.859C1080.56 257.279 1089.23 257.712 1090.86 258.755C1092.38 259.725 1100.42 260.402 1119.36 261.152C1133.87 261.727 1151.37 262.425 1158.24 262.702C1165.12 262.98 1176.59 263.643 1183.74 264.175C1190.89 264.708 1211.27 265.165 1229.02 265.191C1261.29 265.238 1261.29 265.238 1262.38 267.639C1263.48 270.04 1263.48 270.04 1313.11 270.409C1349.94 270.684 1363.31 271.096 1364.93 272.008C1366.6 272.947 1383.07 273.238 1434.64 273.238C1501.23 273.238 1502.19 273.266 1503.25 275.245C1504.33 277.273 1753.26 277.711 1785 275.741C1797.41 274.971 1800.35 272.238 1788.76 272.238C1783.3 272.238 1781.5 271.762 1777.4 269.238C1773.16 266.628 1771.56 266.234 1765.13 266.206C1760.23 266.185 1757.09 265.681 1755.8 264.706C1754.64 263.83 1751.65 263.238 1748.38 263.238C1744.7 263.238 1742.31 262.698 1741.08 261.593C1739.63 260.277 1736.31 259.847 1724.51 259.449C1713.87 259.089 1709.11 258.537 1707.49 257.473C1705.99 256.493 1701.45 255.822 1693.99 255.478C1686.92 255.152 1682.01 254.454 1680.77 253.599C1679.69 252.85 1676.34 252.238 1673.34 252.238C1670.34 252.238 1666.51 251.829 1664.82 251.328C1663.13 250.828 1660.17 249.941 1658.25 249.357C1656.32 248.773 1647.1 248 1637.75 247.638C1622.34 247.042 1620.53 246.782 1618.42 244.859C1616.32 242.954 1614.68 242.703 1602.24 242.394C1590.15 242.093 1588.17 241.807 1586.66 240.144C1585.17 238.492 1583.46 238.234 1573.84 238.206C1565.67 238.183 1562.23 237.787 1560.8 236.706C1559.36 235.611 1555.91 235.238 1547.25 235.238C1540.02 235.238 1535.22 234.816 1534.53 234.118C1532.41 231.999 1524.71 230.918 1508.99 230.53C1493.56 230.15 1493.19 230.091 1491.62 227.69C1490.04 225.281 1489.76 225.237 1475.88 225.206C1465.04 225.182 1461.29 224.832 1459.8 223.706C1458.34 222.603 1454.85 222.238 1445.73 222.238C1434.18 222.238 1433.48 222.121 1431.32 219.816C1429.5 217.884 1427.7 217.28 1422.39 216.832C1404.38 215.308 1402.29 214.994 1401.18 213.655C1400.27 212.563 1396.97 212.238 1386.78 212.238C1374.82 212.238 1373.38 212.046 1371.74 210.238C1370.13 208.455 1368.66 208.238 1358.24 208.238C1347.98 208.238 1346.34 208.003 1344.82 206.317C1343.55 204.914 1341.28 204.263 1336.41 203.904C1332.74 203.633 1327.27 202.884 1324.24 202.238C1321.22 201.592 1315.61 200.838 1311.77 200.56C1307.38 200.243 1303.86 199.396 1302.27 198.272C1300.44 196.977 1297.24 196.37 1290.62 196.061C1284.31 195.766 1280.7 195.111 1278.91 193.936C1277.12 192.765 1274.23 192.238 1269.61 192.238C1264.62 192.238 1262.41 191.789 1260.97 190.488C1259.67 189.308 1256.55 188.525 1251.39 188.085C1242.14 187.295 1235.48 185.869 1233.96 184.358C1233.33 183.724 1229.48 183.238 1225.1 183.238C1220.85 183.238 1217.12 182.84 1216.82 182.354C1215.79 180.697 1207.28 177.238 1204.22 177.238C1202.54 177.238 1200.05 176.502 1198.68 175.603C1196.76 174.346 1194.68 174.09 1189.66 174.493C1183.37 174.998 1183.07 174.915 1181.01 172.127C1179.31 169.831 1178.1 169.238 1175.1 169.238C1172.73 169.238 1169.97 168.31 1167.65 166.738C1165.62 165.363 1162.73 164.238 1161.23 164.238C1159.72 164.238 1157.93 163.563 1157.24 162.738C1156.56 161.913 1154.77 161.238 1153.27 161.238C1151.74 161.238 1149.35 160.136 1147.84 158.738C1146.36 157.363 1144.15 156.222 1142.94 156.203C1141.73 156.183 1139.62 155.524 1138.24 154.738C1136.87 153.952 1134.56 153.293 1133.11 153.273C1131.43 153.251 1129.88 152.333 1128.84 150.738C1127.94 149.363 1126.62 148.238 1125.92 148.238C1125.21 148.238 1122.87 146.622 1120.72 144.648C1118.56 142.673 1115.57 140.423 1114.07 139.648C1112.57 138.872 1110.98 137.676 1110.55 136.988C1110.11 136.301 1108.87 135.258 1107.81 134.671C1106.75 134.084 1105.4 132.734 1104.82 131.671C1104.24 130.608 1102.3 127.412 1100.51 124.569Z" fill="black"/>
</svg>
